<svg width="1920" height="120" viewBox="0 0 1920 120" fill="none" xmlns="http://www.w3.org/2000/svg">
<g clip-path="url(#clip0_116_289)">
<rect width="1920" height="120" fill="#CCFF00"/>
<circle cx="-16" cy="1" r="40" fill="#EEFFA8"/>
<circle cx="55" cy="-1" r="50" fill="#EEFFA8"/>
<circle cx="105" cy="-4" r="25" fill="#EEFFA8"/>
<circle cx="182" cy="-1" r="70" fill="#EEFFA8"/>
<circle cx="548" cy="13" r="70" fill="#EEFFA8"/>
<circle cx="634" cy="31" r="70" fill="#EEFFA8"/>
<circle cx="729" cy="31" r="70" fill="#EEFFA8"/>
<circle cx="268" cy="1" r="40" fill="#EEFFA8"/>
<circle cx="411" cy="-7" r="32" fill="#EEFFA8"/>
<circle cx="468" cy="9" r="40" fill="#EEFFA8"/>
<circle cx="337" cy="29" r="60" fill="#EEFFA8"/>
<circle cx="750" cy="21" r="30" fill="#EEFFA8"/>
<circle cx="810" cy="29" r="60" fill="#EEFFA8"/>
<circle cx="880" cy="21" r="40" fill="#EEFFA8"/>
<circle cx="951" cy="19" r="50" fill="#EEFFA8"/>
<circle cx="1001" cy="16" r="25" fill="#EEFFA8"/>
<circle cx="1078" cy="19" r="70" fill="#EEFFA8"/>
<circle cx="1164" cy="21" r="40" fill="#EEFFA8"/>
<circle cx="1307" cy="13" r="32" fill="#EEFFA8"/>
<circle cx="1364" cy="29" r="40" fill="#EEFFA8"/>
<circle cx="1433" cy="33" r="60" fill="#EEFFA8"/>
<circle cx="1233" cy="49" r="60" fill="#EEFFA8"/>
<circle cx="9" cy="31" r="60" fill="#EEFFA8"/>
<circle cx="79" cy="23" r="40" fill="#EEFFA8"/>
<circle cx="150" cy="21" r="50" fill="#EEFFA8"/>
<circle cx="200" cy="18" r="25" fill="#EEFFA8"/>
<circle cx="277" cy="21" r="70" fill="#EEFFA8"/>
<circle cx="363" cy="23" r="40" fill="#EEFFA8"/>
<circle cx="506" cy="15" r="32" fill="#EEFFA8"/>
<circle cx="563" cy="31" r="40" fill="#EEFFA8"/>
<circle cx="632" cy="35" r="60" fill="#EEFFA8"/>
<circle cx="432" cy="51" r="60" fill="#EEFFA8"/>
<circle cx="1194" cy="25" r="30" fill="#EEFFA8"/>
<circle cx="1254" cy="33" r="60" fill="#EEFFA8"/>
<circle cx="1324" cy="25" r="40" fill="#EEFFA8"/>
<circle cx="1395" cy="23" r="50" fill="#EEFFA8"/>
<circle cx="1445" cy="20" r="25" fill="#EEFFA8"/>
<circle cx="1522" cy="23" r="70" fill="#EEFFA8"/>
<circle cx="1608" cy="25" r="40" fill="#EEFFA8"/>
<circle cx="1751" cy="17" r="32" fill="#EEFFA8"/>
<circle cx="1808" cy="33" r="40" fill="#EEFFA8"/>
<circle cx="1877" cy="37" r="60" fill="#EEFFA8"/>
<circle cx="1677" cy="53" r="60" fill="#EEFFA8"/>
<circle cx="30" cy="-18" r="30" fill="white"/>
<circle cx="90" cy="-10" r="60" fill="white"/>
<circle cx="160" cy="-18" r="40" fill="white"/>
<circle cx="231" cy="-20" r="50" fill="white"/>
<circle cx="281" cy="-23" r="25" fill="white"/>
<circle cx="358" cy="-20" r="70" fill="white"/>
<circle cx="444" cy="-18" r="40" fill="white"/>
<circle cx="587" cy="-26" r="32" fill="white"/>
<circle cx="644" cy="-10" r="40" fill="white"/>
<circle cx="513" cy="10" r="60" fill="white"/>
<circle cx="639" cy="-11" r="30" fill="white"/>
<circle cx="699" cy="7" r="60" fill="white"/>
<circle cx="769" cy="-11" r="40" fill="white"/>
<circle cx="840" cy="-13" r="50" fill="white"/>
<circle cx="890" cy="-16" r="25" fill="white"/>
<circle cx="967" cy="-13" r="70" fill="white"/>
<circle cx="1053" cy="-11" r="40" fill="white"/>
<circle cx="1196" cy="-19" r="32" fill="white"/>
<circle cx="1253" cy="-3" r="40" fill="white"/>
<circle cx="1122" cy="17" r="60" fill="white"/>
<circle cx="10" cy="9" r="60" fill="white"/>
<circle cx="80" cy="-9" r="40" fill="white"/>
<circle cx="151" cy="-11" r="50" fill="white"/>
<circle cx="201" cy="-14" r="25" fill="white"/>
<circle cx="278" cy="-11" r="70" fill="white"/>
<circle cx="364" cy="-9" r="40" fill="white"/>
<circle cx="507" cy="-17" r="32" fill="white"/>
<circle cx="564" cy="-1" r="40" fill="white"/>
<circle cx="433" cy="19" r="60" fill="white"/>
<circle cx="1280" cy="19" r="30" fill="white"/>
<circle cx="1340" cy="37" r="60" fill="white"/>
<circle cx="1410" cy="19" r="40" fill="white"/>
<circle cx="1481" cy="17" r="50" fill="white"/>
<circle cx="1531" cy="14" r="25" fill="white"/>
<circle cx="1608" cy="17" r="70" fill="white"/>
<circle cx="1694" cy="19" r="40" fill="white"/>
<circle cx="1837" cy="11" r="32" fill="white"/>
<circle cx="1894" cy="27" r="40" fill="white"/>
<circle cx="1763" cy="47" r="60" fill="white"/>
<circle cx="870" cy="-28" r="30" fill="white"/>
<circle cx="930" cy="-20" r="60" fill="white"/>
<circle cx="1000" cy="-28" r="40" fill="white"/>
<circle cx="1071" cy="-30" r="50" fill="white"/>
<circle cx="1198" cy="-30" r="70" fill="white"/>
<circle cx="1284" cy="-28" r="40" fill="white"/>
<circle cx="1484" cy="-20" r="40" fill="white"/>
<circle cx="1353" cy="-20" r="60" fill="white"/>
</g>
<defs>
<clipPath id="clip0_116_289">
<rect width="1920" height="120" fill="white"/>
</clipPath>
</defs>
</svg>
