<svg width="237" height="48" viewBox="0 0 237 48" fill="none" xmlns="http://www.w3.org/2000/svg">
<g clip-path="url(#clip0_116_565)">
<path fill-rule="evenodd" clip-rule="evenodd" d="M173.794 30.5633C169.136 38.4606 161.759 36.1691 159.543 34.3749C158.601 35.0147 156.947 36.417 154.742 36.255C150.047 35.9104 148.366 29.2007 148.366 29.2007C148.4 29.2275 146.967 29.6949 146.193 29.6866C146.183 31.6542 144.482 36.3546 139.892 36.2945C134.741 36.2273 133.694 28.5531 133.694 28.5531C133.694 28.5531 133.181 29.2649 131.232 29.9739C131.33 28.4622 131.258 36.0644 125.085 36.1761C120.204 36.2646 118.886 28.4348 118.886 28.4348C118.886 28.4348 118.04 29.3143 116.399 29.6194C116.503 28.0831 116.333 36.2019 110.159 36.1761C105.986 36.1588 104.56 31.353 104.671 30.686C104.813 29.8359 103.261 36.2957 99.2079 36.195C97.5353 36.1459 96.2883 34.9349 95.5059 33.3204C94.4584 34.5189 92.9376 36.195 91.2316 36.195C88.1692 36.195 86.8191 33.6337 87.0477 26.3179C87.0673 25.4502 87.0046 25.109 86.1421 24.9792C85.6243 24.8928 85.0941 24.7292 84.5331 24.643C84.3533 25.243 82.8283 35.9998 77.5842 36.204C75.8249 36.2725 74.863 34.7485 74.073 33.6174C72.862 35.2194 71.2633 36.255 68.986 36.255C65.1283 36.255 62.5 33.1365 62.5 29.2895C62.5 25.4425 65.1283 22.3242 68.986 22.3242C69.6681 22.3242 69.8595 22.422 70.4827 22.6038C69.2012 10.9365 72.2275 9.11303 74.8748 9.11303C77.4164 9.11303 81.7585 15.012 75.6488 29.9751C77.0053 34.4381 79.9296 34.1857 81.3348 24.9982C81.6208 23.1307 80.8561 20.6105 82.0455 20.2588C84.2199 19.616 84.4506 21.5446 85.4701 21.866C86.5481 22.2056 87.1773 22.1724 88.2121 22.3885C89.9805 22.7339 90.6706 23.6838 90.4551 25.7996C90.1964 28.4767 89.7438 32.3732 91.1238 32.8481C92.1189 33.1931 93.9358 31.1293 94.2547 30.0001C94.5734 28.871 94.6399 28.4845 94.6683 27.6563C94.7114 25.8861 94.7655 24.5886 95.0673 23.2499C95.1965 22.7319 95.3438 22.3888 95.9299 22.3654C96.4121 22.3531 97.294 22.2079 97.6823 22.51C98.1997 22.8988 98.135 23.2933 98.0756 24.3316C97.4738 39.1353 102.106 31.7452 103.487 25.8279C102.995 19.1369 103.332 9.23555 107.525 9.06949C109.706 8.98313 110.67 10.7301 110.776 12.034C111.076 15.7168 109.396 21.8172 107.186 25.9197C105.924 34.2907 112.708 35.9459 113.793 29.2642C112.018 28.4202 110.099 25.0044 111.66 23.3397C112.536 22.4055 116.182 23.7476 116.242 26.6748C118.03 26.1965 118.269 25.1867 118.294 25.354C117.802 18.663 118.258 9.23564 122.451 9.06957C124.632 8.98321 125.596 10.7301 125.702 12.0341C126.002 15.7168 124.322 21.8173 122.112 25.9199C120.849 34.2907 127.634 35.946 128.718 29.2643C127.404 29.0107 124.63 25.3775 126.231 23.3398C127.086 22.2509 130.719 24.5154 131.125 26.7717C132.843 26.2855 133.077 25.3078 133.101 25.4724C132.61 18.7816 133.066 9.35422 137.259 9.18815C139.439 9.10179 140.403 10.8487 140.509 12.1527C140.809 15.8354 139.129 21.936 136.919 26.0385C135.657 34.4095 142.441 36.0644 143.526 29.3827C141.72 29.082 139.153 25.2458 141.219 23.2833C142.044 22.4992 145.198 24.5346 145.936 26.8568C146.962 26.8173 147.6 26.4636 147.737 26.4279C146.099 18.573 147.318 9.14836 151.829 9.06969C154.267 9.02721 156.651 10.3877 155.604 17.8606C154.606 24.9906 151.016 27.9827 151.024 28.0285C151.233 28.8827 153.075 36.0312 157.714 32.2594C157.474 31.7157 157.233 31.1603 157.099 30.4874C156.33 26.5677 157.84 22.1404 161.945 21.4249C164.296 21.0149 166.512 22.1598 166.862 24.741C167.438 28.9645 163.624 32.0233 162.174 32.6868C161.524 32.3178 168.062 36.5107 171.942 28.108C172.167 27.6282 172.438 27.6689 172.79 27.9162C173.038 28.0908 174.451 29.4299 173.794 30.5633ZM71.7921 28.2517C71.5947 27.6615 71.1895 26.361 71.0463 25.7976C70.2573 25.1114 69.6941 25 68.6813 25C66.4307 25 65.106 27.0809 65.106 29.3247C65.106 31.5684 66.5491 33.6496 68.7998 33.6496C70.7503 33.6496 72.2348 32.3235 72.6877 30.4462C72.3707 29.7143 72.0562 29.0417 71.7921 28.2517ZM74.8197 12.2015C73.2382 12.2015 72.7018 15.974 72.8059 19.1924C72.898 22.0378 73.6931 24.5428 74.1055 25.6653C74.2102 25.8059 74.1908 25.7144 74.2843 25.8636C77.0302 19.8472 75.8913 12.2015 74.8197 12.2015ZM107.751 12.32C105.707 12.0855 105.72 20.6001 105.974 22.51C107.036 20.8118 108.88 12.7772 107.751 12.32ZM122.677 12.32C120.633 12.0855 120.646 20.6001 120.9 22.51C121.961 20.8118 123.806 12.7772 122.677 12.32ZM137.484 12.4384C135.44 12.204 135.453 20.7186 135.707 22.6287C136.769 20.9303 138.613 12.8956 137.484 12.4384ZM152.055 11.8215C148.87 12.461 149.612 23.0789 150.095 24.9412C153.846 19.789 153.924 11.628 152.055 11.8215ZM163.99 25.0903C163.828 24.4133 163.018 24.0515 162.459 24.1407C160.86 24.359 159.31 26.3505 159.91 29.3824C160.043 30.0576 160.378 30.6792 160.372 30.6585C163.951 28.2577 164.255 26.3659 163.99 25.0903ZM96.5567 20.0218C96.0997 20.0219 95.653 19.8864 95.273 19.6326C94.8929 19.3787 94.5967 19.0179 94.4217 18.5957C94.2467 18.1735 94.201 17.7089 94.2901 17.2607C94.3792 16.8124 94.5993 16.4007 94.9224 16.0775C95.2455 15.7543 95.6572 15.5342 96.1054 15.4451C96.5537 15.3559 97.0183 15.4016 97.4405 15.5765C97.8628 15.7514 98.2236 16.0476 98.4775 16.4276C98.7314 16.8076 98.8669 17.2544 98.8669 17.7114C98.8669 18.0148 98.8072 18.3152 98.691 18.5955C98.575 18.8758 98.4049 19.1305 98.1903 19.345C97.9757 19.5596 97.7211 19.7298 97.4408 19.8459C97.1606 19.962 96.8602 20.0218 96.5567 20.0218Z" fill="#575757"/>
</g>
<defs>
<clipPath id="clip0_116_565">
<rect width="112" height="48" fill="white" transform="translate(62.5)"/>
</clipPath>
</defs>
</svg>
