<svg width="87" height="56" viewBox="0 0 87 56" fill="none" xmlns="http://www.w3.org/2000/svg">
<path d="M59.247 43.8113C56.4492 52.4928 48.1837 57.8096 39.1274 55.3043C36.8507 54.7192 35.4793 52.3968 36.069 50.1247C36.6541 47.8481 38.9765 46.4766 41.2486 47.0663C43.0772 47.7932 45.0019 48.3692 46.9539 47.9029C50.1495 47.3269 52.7553 44.5611 54.1954 41.7175C55.7909 38.7552 60.2207 40.6112 59.247 43.8159V43.8113Z" fill="#F1E811"/>
<path d="M30.3229 36.7166C27.9868 37.6812 23.8861 39.6836 23.3146 42.2574C23.3055 42.7054 23.4563 42.806 23.7261 43.1443C25.2987 44.9546 25.1067 47.6976 23.2963 49.2702C21.134 51.2223 17.5041 50.3537 16.4344 47.6564L16.0687 46.765C14.6195 43.4049 15.3875 39.5099 17.8379 36.8446C20.782 33.6994 24.8507 32.2547 28.9011 31.4136C32.2612 30.8513 33.491 35.5372 30.3183 36.7121L30.3229 36.7166Z" fill="#F1E811"/>
<path d="M73.5512 39.1302C70.6894 47.0208 55.7952 47.8985 48.3252 47.2036C45.8931 46.9796 43.0724 46.4768 40.2198 45.6996C32.1783 43.5235 23.8809 39.1942 23.2774 32.8351C22.8431 28.2315 26.4638 22.8096 31.9635 18.8141C37.2985 14.9373 44.3982 12.4001 51.2602 13.2596C65.231 15.0059 76.6416 30.5996 73.5512 39.1302Z" fill="#F1E811"/>
<path d="M46.9176 43.0984C44.6272 44.3922 38.4373 37.7908 33.0977 28.3459C32.2702 26.8875 31.5159 25.4475 30.8347 24.0486C29.1021 20.501 27.8586 17.2186 27.2186 14.6174C26.4734 11.6047 26.5329 9.4926 27.5706 8.90287C29.8655 7.6091 36.0509 14.2105 41.3951 23.6554C46.7347 33.0957 49.208 41.8001 46.9176 43.0984Z" fill="#F1E811"/>
<path d="M55.7007 23.2028C57.1679 11.4908 54.9879 1.5743 50.8317 1.05367C46.6755 0.533039 42.1169 9.60545 40.6498 21.3175C39.1827 33.0295 41.3626 42.946 45.5188 43.4666C49.675 43.9872 54.2336 34.9148 55.7007 23.2028Z" fill="#F1E811"/>
<path d="M69.5161 32.2202C78.6813 24.7824 83.9716 16.1163 81.3322 12.8638C78.6927 9.61136 69.1231 13.0043 59.9578 20.4421C50.7925 27.8799 45.5023 36.5461 48.1417 39.7985C50.7811 43.051 60.3508 39.6581 69.5161 32.2202Z" fill="#F1E811"/>
<path opacity="0.59" d="M42.9585 45.1693C37.5 51.789 26.4779 50.6827 21.4354 50.1432C18.3222 49.8095 6.77888 48.5797 2.63702 40.8537C1.89642 39.4686 0.735247 37.5942 1.32041 35.4227C2.04729 32.7346 5.05996 30.7734 17.2661 27.0064C28.8643 23.4268 34.7159 21.6668 37.5549 22.8462C44.9883 25.9458 48.8238 38.0468 42.9585 45.1648V45.1693Z" fill="url(#paint0_linear_116_219)"/>
<path d="M34.9031 29.1368C34.7157 29.8042 35.1089 30.5311 35.6894 30.8694C36.2198 31.1803 36.9329 31.162 37.4404 30.81C37.9478 30.458 38.3501 29.8591 38.2952 29.2099C38.2312 28.4465 37.7649 27.7973 37.0106 27.587C36.3935 27.4133 35.6666 27.5687 35.2049 28.0305C34.7431 28.4922 34.5603 29.1825 34.734 29.8317C34.9077 30.4808 35.4197 30.9608 36.046 31.1163C36.8826 31.3266 37.7009 30.8146 37.9707 30.0237C38.1032 29.6351 37.9524 29.1688 37.6689 28.8899C37.3489 28.5699 36.9604 28.5242 36.5352 28.5882C36.4895 28.5973 36.4438 28.6065 36.398 28.6202L36.7226 28.5745C36.6769 28.579 36.6312 28.5836 36.5855 28.5745L36.9238 28.6202C36.8323 28.6065 36.7363 28.5928 36.6495 28.5608L36.9604 28.6933C36.9329 28.6796 36.9055 28.6659 36.8781 28.6476L37.1432 28.8533C37.1066 28.8213 37.0746 28.7939 37.0426 28.7573L37.2484 29.0225C37.2209 28.9813 37.1981 28.9448 37.1752 28.9036L37.3078 29.2191C37.2849 29.1596 37.2666 29.1002 37.2575 29.0408L37.3032 29.3928C37.3032 29.3425 37.3032 29.3014 37.3032 29.2556L37.2575 29.6077C37.2621 29.5757 37.2712 29.5482 37.2804 29.5162L37.1478 29.8317C37.1661 29.7859 37.1889 29.7494 37.2164 29.7128L37.0106 29.9825C37.0289 29.9597 37.0518 29.9368 37.0792 29.9185L36.8095 30.1242C36.8506 30.0968 36.8872 30.074 36.9283 30.0557L36.6083 30.1883C36.6541 30.17 36.6952 30.1608 36.7455 30.1517L36.3889 30.1974C36.4392 30.1974 36.4803 30.1928 36.5306 30.1974L36.174 30.1517C36.2198 30.1608 36.2655 30.17 36.3112 30.1837L35.9912 30.0465C36.0369 30.0648 36.0735 30.0877 36.11 30.1151L35.8403 29.9048C35.8632 29.9231 35.886 29.946 35.9043 29.9734L35.694 29.6991C35.694 29.6991 35.726 29.7448 35.7397 29.7722L35.6026 29.4522C35.6209 29.4934 35.63 29.5299 35.6392 29.5711L35.5889 29.2145C35.5934 29.2831 35.5934 29.3562 35.5889 29.4248L35.6346 29.0682C35.6254 29.1139 35.6163 29.1505 35.6026 29.1916L35.7352 28.8762C35.7123 28.9311 35.6849 28.9768 35.6483 29.0271L35.854 28.7619C35.8266 28.7939 35.7992 28.8213 35.7626 28.8488L36.0232 28.6476C35.9866 28.6705 35.9546 28.6888 35.9135 28.7071L36.2198 28.579C36.1923 28.5882 36.1649 28.5973 36.1375 28.5973L36.4758 28.5516C36.4483 28.5516 36.4209 28.5562 36.3889 28.5516L36.7226 28.5973C36.6815 28.5928 36.6449 28.5836 36.6038 28.5699L36.9009 28.6933C36.8643 28.6751 36.8323 28.6568 36.7958 28.6339L37.0426 28.8259C37.0106 28.7985 36.9832 28.7711 36.9558 28.7391L37.1478 28.9859C37.0564 28.8625 36.9832 28.7116 36.8644 28.611C36.5261 28.3413 36.1558 28.1859 35.7169 28.3093C35.3191 28.419 35.0037 28.7345 34.894 29.1322L34.9031 29.1368Z" fill="#3E3D4D"/>
<path d="M44.6177 29.3152C43.9914 29.8227 43.8177 30.7736 44.22 31.4639C44.5949 32.1085 45.2989 32.4833 46.0395 32.4788C46.7801 32.4742 47.5756 32.0353 47.9504 31.377C48.3482 30.6776 48.3344 29.873 47.9321 29.1781C47.1001 27.7289 44.8692 27.6969 44.0463 29.1644C43.5343 30.0741 43.7583 31.2993 44.6817 31.857C45.4132 32.3005 46.5378 32.2182 47.1138 31.537C47.4613 31.1256 47.7264 30.545 47.5207 29.9964L47.507 29.9644C47.3698 29.5941 47.1595 29.2329 46.7938 29.0364C46.4281 28.8398 46.0166 28.7758 45.6006 28.8809C45.3538 28.9404 45.0292 29.1049 44.8692 29.2969C44.7275 29.4615 45.2486 29.0729 45.0338 29.1689L45.4132 29.0089C45.3812 29.0226 45.3446 29.0318 45.3081 29.0318L45.7286 28.9769C45.6921 28.9769 45.6555 28.9769 45.6235 28.9769L46.0441 29.0318C46.0075 29.0272 45.9755 29.0181 45.9435 29.0044L46.3184 29.1644C46.4829 29.2741 46.6201 29.4067 46.7298 29.5712L46.8898 29.9461C46.8715 29.905 46.8624 29.8638 46.8578 29.8227L46.9127 30.2387C46.9081 30.1975 46.9127 30.1518 46.9127 30.1107L46.8578 30.5267C46.8944 30.3758 46.867 30.4353 46.7664 30.7141C46.579 30.929 46.5424 30.9839 46.6475 30.8696C46.5195 31.0021 46.3641 31.0936 46.1812 31.1393C46.2224 31.1256 46.2589 31.1164 46.3001 31.1119L45.8886 31.1667C45.9526 31.1621 46.0075 31.1667 46.0715 31.1667L45.6601 31.1119C45.8566 31.1484 45.7743 31.2079 45.5275 31.0296C45.6601 31.1301 45.6921 31.185 45.4223 30.9244C45.5915 31.089 45.2395 30.577 45.34 30.801L45.2349 30.545C45.2486 30.5816 45.2578 30.6227 45.2623 30.6638L45.2075 30.2615C45.212 30.3027 45.212 30.3438 45.2075 30.385L45.2623 29.9827C45.2395 30.1518 45.1572 30.1747 45.3446 29.8547C45.2258 30.0558 45.6052 29.5849 45.4269 29.7404L45.6326 29.5849C45.5961 29.6078 45.5641 29.6307 45.5229 29.6444C45.5183 29.5941 45.9481 29.5118 45.6418 29.5621L46.0349 29.5072C45.9709 29.5118 45.9161 29.5118 45.8521 29.5072L46.2452 29.5621C46.1035 29.5301 46.1629 29.5621 46.4235 29.6535C46.2955 29.5758 46.3458 29.6169 46.579 29.7815C46.739 30.0101 46.7847 30.065 46.707 29.9415C46.6338 29.8272 46.5515 29.7221 46.4601 29.6261C46.3732 29.5301 46.2681 29.4478 46.1492 29.3838C46.3687 29.5667 46.4281 29.6078 46.3321 29.5164C46.4829 29.7221 46.5241 29.7724 46.451 29.6672C46.3961 29.5667 46.4189 29.6169 46.5149 29.8227C46.3732 29.4387 46.1264 29.1369 45.7195 29.0272C45.3126 28.9175 44.9378 29.0546 44.6086 29.3198L44.6177 29.3152Z" fill="#3E3D4D"/>
<path d="M34.7891 25.2418C35.4428 23.8337 37.1069 23.6372 38.0761 24.8395C38.4921 25.3561 39.2144 24.6246 38.803 24.1126C37.4406 22.4257 34.812 22.7548 33.8976 24.7206C33.6233 25.3195 34.5057 25.8407 34.7845 25.2418H34.7891Z" fill="#3E3D4D"/>
<path d="M45.9486 25.2509C47.6538 23.8337 50.1133 24.9308 50.2459 27.1252C50.2871 27.7835 51.3157 27.7881 51.2745 27.1252C51.0871 24.0028 47.6127 22.5353 45.2217 24.524C44.7143 24.9491 45.4457 25.6714 45.9486 25.2509Z" fill="#3E3D4D"/>
<path d="M41.3125 33.5207C41.3125 34.5676 40.4621 35.418 39.4152 35.418C38.3684 35.418 37.5226 34.5676 37.5226 33.5207C37.5226 33.1962 37.6003 32.8944 37.742 32.6293C38.0621 32.0304 38.6884 31.6235 39.4152 31.6235C40.2656 31.6235 40.9833 32.1813 41.2256 32.9539C41.285 33.1322 41.3125 33.3242 41.3125 33.5207Z" fill="#3E3D4D" stroke="#3E3D4D" stroke-width="0.914319" stroke-miterlimit="10" stroke-linecap="round"/>
<path d="M22.5558 51.4445L32.083 48.6803L19.5706 43.5647" fill="#767B77"/>
<path d="M22.5558 51.4445L32.083 48.6803L19.5706 43.5647" stroke="#767B77" stroke-width="1.82864" stroke-linecap="round" stroke-linejoin="round"/>
<path d="M3.14452 32.0765L20.96 35.5143C21.8378 35.6835 22.5189 36.4332 22.6561 37.3841L24.4527 49.7731C24.6767 51.3137 23.4241 52.6349 22.0023 52.3606L4.52971 48.9868C3.67482 48.8222 3.0028 48.1045 2.84279 47.181L0.70329 34.728C0.433566 33.1691 1.69532 31.8022 3.14452 32.0811V32.0765Z" fill="#3E3D4D"/>
<path d="M10.8844 43.533C11.609 43.533 12.1964 42.9456 12.1964 42.221C12.1964 41.4964 11.609 40.9089 10.8844 40.9089C10.1597 40.9089 9.57233 41.4964 9.57233 42.221C9.57233 42.9456 10.1597 43.533 10.8844 43.533Z" fill="white"/>
<path d="M11.3962 39.9255C11.6865 39.9255 11.9219 39.6901 11.9219 39.3998C11.9219 39.1094 11.6865 38.874 11.3962 38.874C11.1058 38.874 10.8704 39.1094 10.8704 39.3998C10.8704 39.6901 11.1058 39.9255 11.3962 39.9255Z" fill="white"/>
<path d="M12.9 40.9452C13.0818 40.9452 13.2292 40.7978 13.2292 40.616C13.2292 40.4342 13.0818 40.2869 12.9 40.2869C12.7182 40.2869 12.5709 40.4342 12.5709 40.616C12.5709 40.7978 12.7182 40.9452 12.9 40.9452Z" fill="white"/>
<path d="M35.699 29.859C35.9768 29.859 36.2019 29.6339 36.2019 29.3561C36.2019 29.0784 35.9768 28.8533 35.699 28.8533C35.4213 28.8533 35.1962 29.0784 35.1962 29.3561C35.1962 29.6339 35.4213 29.859 35.699 29.859Z" fill="white"/>
<path d="M44.8328 30.8058C45.1106 30.8058 45.3357 30.5807 45.3357 30.3029C45.3357 30.0252 45.1106 29.8 44.8328 29.8C44.5551 29.8 44.33 30.0252 44.33 30.3029C44.33 30.5807 44.5551 30.8058 44.8328 30.8058Z" fill="white"/>
<path d="M41.2259 32.9539C40.8419 33.3013 40.2659 33.5207 39.6258 33.5207C38.8029 33.5207 38.0898 33.155 37.7423 32.6293C38.0624 32.0304 38.6887 31.6235 39.4155 31.6235C40.2659 31.6235 40.9836 32.1813 41.2259 32.9539Z" fill="white"/>
<defs>
<linearGradient id="paint0_linear_116_219" x1="4.7357" y1="27.5802" x2="41.0978" y2="47.4123" gradientUnits="userSpaceOnUse">
<stop stop-color="#B5FF9F"/>
<stop offset="1" stop-color="white"/>
</linearGradient>
</defs>
</svg>
