<svg width="237" height="48" viewBox="0 0 237 48" fill="none" xmlns="http://www.w3.org/2000/svg">
<path d="M110.238 25.6501C110.238 30.9734 106.073 34.896 100.963 34.896C95.8519 34.896 91.6876 30.9734 91.6876 25.6501C91.6876 20.2894 95.8519 16.4043 100.963 16.4043C106.073 16.4043 110.238 20.2894 110.238 25.6501ZM106.177 25.6501C106.177 22.3236 103.764 20.0476 100.963 20.0476C98.1613 20.0476 95.7477 22.3236 95.7477 25.6501C95.7477 28.9433 98.1613 31.2527 100.963 31.2527C103.764 31.2527 106.177 28.9391 106.177 25.6501Z" fill="#575757"/>
<path d="M130.247 25.6501C130.247 30.9734 126.082 34.896 120.972 34.896C115.861 34.896 111.697 30.9734 111.697 25.6501C111.697 20.2936 115.861 16.4043 120.972 16.4043C126.082 16.4043 130.247 20.2894 130.247 25.6501ZM126.187 25.6501C126.187 22.3236 123.773 20.0476 120.972 20.0476C118.171 20.0476 115.757 22.3236 115.757 25.6501C115.757 28.9433 118.171 31.2527 120.972 31.2527C123.773 31.2527 126.187 28.9391 126.187 25.6501Z" fill="#575757"/>
<path d="M149.422 16.9629V33.562C149.422 40.3901 145.396 43.1789 140.635 43.1789C136.154 43.1789 133.457 40.1817 132.44 37.7306L135.975 36.2591C136.604 37.7639 138.147 39.5397 140.631 39.5397C143.678 39.5397 145.567 37.6597 145.567 34.1206V32.7909H145.425C144.516 33.9122 142.765 34.8918 140.556 34.8918C135.933 34.8918 131.698 30.865 131.698 25.6835C131.698 20.4645 135.933 16.4043 140.556 16.4043C142.761 16.4043 144.512 17.3839 145.425 18.4719H145.567V16.9671H149.422V16.9629ZM145.854 25.6835C145.854 22.4278 143.682 20.0476 140.919 20.0476C138.117 20.0476 135.77 22.4278 135.77 25.6835C135.77 28.9058 138.117 31.2527 140.919 31.2527C143.682 31.2527 145.854 28.9058 145.854 25.6835Z" fill="#575757"/>
<path d="M155.779 7.23358V34.3291H151.819V7.23358H155.779Z" fill="#575757"/>
<path d="M171.211 28.6932L174.363 30.7941C173.346 32.299 170.895 34.8918 166.659 34.8918C161.407 34.8918 157.484 30.8317 157.484 25.646C157.484 20.1477 161.44 16.4001 166.205 16.4001C171.003 16.4001 173.35 20.2185 174.117 22.282L174.538 23.3324L162.178 28.4514C163.124 30.3064 164.596 31.2527 166.659 31.2527C168.727 31.2527 170.161 30.2356 171.211 28.6932ZM161.511 25.3667L169.773 21.936C169.319 20.7813 167.952 19.9768 166.343 19.9768C164.279 19.9768 161.407 21.7984 161.511 25.3667Z" fill="#575757"/>
<path d="M76.6975 23.2447V19.3221H89.9159C90.0451 20.0058 90.1118 20.8145 90.1118 21.6899C90.1118 24.6329 89.3073 28.272 86.7145 30.8648C84.1925 33.491 80.9702 34.8917 76.7016 34.8917C68.7897 34.8917 62.1367 28.4471 62.1367 20.5352C62.1367 12.6233 68.7897 6.17871 76.7016 6.17871C81.0786 6.17871 84.1967 7.89615 86.5394 10.1347L83.7715 12.9026C82.0916 11.3269 79.8155 10.1013 76.6975 10.1013C70.9198 10.1013 66.4011 14.7576 66.4011 20.5352C66.4011 26.3128 70.9198 30.9691 76.6975 30.9691C80.445 30.9691 82.5793 29.4642 83.9466 28.0969C85.0554 26.9881 85.7849 25.4041 86.0725 23.2406L76.6975 23.2447Z" fill="#575757"/>
</svg>
