<svg width="1920" height="120" viewBox="0 0 1920 120" fill="none" xmlns="http://www.w3.org/2000/svg">
<g clip-path="url(#clip0_116_486)">
<rect width="1920" height="120" fill="#121212"/>
<circle cx="-16" cy="1" r="40" fill="#575757"/>
<circle cx="55" cy="-1" r="50" fill="#575757"/>
<circle cx="105" cy="-4" r="25" fill="#575757"/>
<circle cx="182" cy="-1" r="70" fill="#575757"/>
<circle cx="548" cy="13" r="70" fill="#575757"/>
<circle cx="634" cy="31" r="70" fill="#575757"/>
<circle cx="729" cy="31" r="70" fill="#575757"/>
<circle cx="268" cy="1" r="40" fill="#575757"/>
<circle cx="411" cy="-7" r="32" fill="#575757"/>
<circle cx="468" cy="9" r="40" fill="#575757"/>
<circle cx="337" cy="29" r="60" fill="#575757"/>
<circle cx="898" cy="-6" r="30" fill="#575757"/>
<circle cx="958" cy="2" r="60" fill="#575757"/>
<circle cx="1028" cy="-6" r="40" fill="#575757"/>
<circle cx="1099" cy="-8" r="50" fill="#575757"/>
<circle cx="1149" cy="-11" r="25" fill="#575757"/>
<circle cx="1226" cy="-8" r="70" fill="#575757"/>
<circle cx="1592" cy="6" r="70" fill="#575757"/>
<circle cx="1678" cy="24" r="70" fill="#575757"/>
<circle cx="1773" cy="24" r="70" fill="#575757"/>
<circle cx="1312" cy="-6" r="40" fill="#575757"/>
<circle cx="1455" cy="-14" r="32" fill="#575757"/>
<circle cx="1512" cy="2" r="40" fill="#575757"/>
<circle cx="1381" cy="22" r="60" fill="#575757"/>
<g filter="url(#filter0_f_116_486)">
<rect x="112" y="-51" width="142" height="142" rx="71" fill="url(#paint0_radial_116_486)"/>
<rect x="104" y="-59" width="158" height="158" rx="79" stroke="#F1E811" stroke-opacity="0.11" stroke-width="16"/>
</g>
<circle cx="750" cy="21" r="30" fill="#575757"/>
<circle cx="810" cy="29" r="60" fill="#575757"/>
<circle cx="880" cy="21" r="40" fill="#575757"/>
<circle cx="951" cy="19" r="50" fill="#575757"/>
<circle cx="1001" cy="16" r="25" fill="#575757"/>
<circle cx="1078" cy="19" r="70" fill="#575757"/>
<circle cx="1164" cy="21" r="40" fill="#575757"/>
<circle cx="1307" cy="13" r="32" fill="#575757"/>
<circle cx="1364" cy="29" r="40" fill="#575757"/>
<circle cx="1433" cy="33" r="60" fill="#575757"/>
<circle cx="1233" cy="49" r="60" fill="#575757"/>
<circle cx="1160" cy="2" r="30" fill="#575757"/>
<circle cx="1220" cy="10" r="60" fill="#575757"/>
<circle cx="1290" cy="2" r="40" fill="#575757"/>
<circle cx="1361" r="50" fill="#575757"/>
<circle cx="1411" cy="-3" r="25" fill="#575757"/>
<circle cx="1488" r="70" fill="#575757"/>
<circle cx="1574" cy="2" r="40" fill="#575757"/>
<circle cx="1717" cy="-6" r="32" fill="#575757"/>
<circle cx="1774" cy="10" r="40" fill="#575757"/>
<circle cx="1843" cy="14" r="60" fill="#575757"/>
<circle cx="1643" cy="30" r="60" fill="#575757"/>
<circle cx="1190" cy="2" r="30" fill="#575757"/>
<circle cx="1250" cy="10" r="60" fill="#575757"/>
<circle cx="1320" cy="2" r="40" fill="#575757"/>
<circle cx="1391" r="50" fill="#575757"/>
<circle cx="1441" cy="-3" r="25" fill="#575757"/>
<circle cx="1518" r="70" fill="#575757"/>
<circle cx="1604" cy="2" r="40" fill="#575757"/>
<circle cx="1747" cy="-6" r="32" fill="#575757"/>
<circle cx="1804" cy="10" r="40" fill="#575757"/>
<circle cx="1873" cy="14" r="60" fill="#575757"/>
<circle cx="1673" cy="30" r="60" fill="#575757"/>
<circle cx="30" cy="-18" r="30" fill="white"/>
<circle cx="90" cy="-10" r="60" fill="white"/>
<circle cx="160" cy="-18" r="40" fill="white"/>
<circle cx="231" cy="-20" r="50" fill="white"/>
<circle cx="281" cy="-23" r="25" fill="white"/>
<circle cx="358" cy="-20" r="70" fill="white"/>
<circle cx="444" cy="-18" r="40" fill="white"/>
<circle cx="587" cy="-26" r="32" fill="white"/>
<circle cx="644" cy="-10" r="40" fill="white"/>
<circle cx="513" cy="10" r="60" fill="white"/>
<circle cx="639" cy="-11" r="30" fill="white"/>
<circle cx="699" cy="7" r="60" fill="white"/>
<circle cx="769" cy="-11" r="40" fill="white"/>
<circle cx="840" cy="-13" r="50" fill="white"/>
<circle cx="890" cy="-16" r="25" fill="white"/>
<circle cx="967" cy="-13" r="70" fill="white"/>
<circle cx="1053" cy="-11" r="40" fill="white"/>
<circle cx="1196" cy="-19" r="32" fill="white"/>
<circle cx="1253" cy="-3" r="40" fill="white"/>
<circle cx="1122" cy="17" r="60" fill="white"/>
<circle cx="1266" cy="-11" r="30" fill="white"/>
<circle cx="1326" cy="7" r="60" fill="white"/>
<circle cx="1396" cy="-11" r="40" fill="white"/>
<circle cx="1467" cy="-13" r="50" fill="white"/>
<circle cx="1517" cy="-16" r="25" fill="white"/>
<circle cx="1594" cy="-13" r="70" fill="white"/>
<circle cx="1680" cy="-11" r="40" fill="white"/>
<circle cx="1823" cy="-19" r="32" fill="white"/>
<circle cx="1880" cy="-3" r="40" fill="white"/>
<circle cx="1749" cy="17" r="60" fill="white"/>
<circle cx="1283" cy="-22" r="30" fill="white"/>
<circle cx="1343" cy="-4" r="60" fill="white"/>
<circle cx="1413" cy="-22" r="40" fill="white"/>
<circle cx="1484" cy="-24" r="50" fill="white"/>
<circle cx="1611" cy="-24" r="70" fill="white"/>
<circle cx="1697" cy="-22" r="40" fill="white"/>
<circle cx="1840" cy="-30" r="32" fill="white"/>
<circle cx="1897" cy="-14" r="40" fill="white"/>
<circle cx="1766" cy="6" r="60" fill="white"/>
<circle cx="870" cy="-28" r="30" fill="white"/>
<circle cx="930" cy="-20" r="60" fill="white"/>
<circle cx="1000" cy="-28" r="40" fill="white"/>
<circle cx="1071" cy="-30" r="50" fill="white"/>
<circle cx="1198" cy="-30" r="70" fill="white"/>
<circle cx="1284" cy="-28" r="40" fill="white"/>
<circle cx="1484" cy="-20" r="40" fill="white"/>
<circle cx="1353" cy="-20" r="60" fill="white"/>
</g>
<defs>
<filter id="filter0_f_116_486" x="89" y="-74" width="188" height="188" filterUnits="userSpaceOnUse" color-interpolation-filters="sRGB">
<feFlood flood-opacity="0" result="BackgroundImageFix"/>
<feBlend mode="normal" in="SourceGraphic" in2="BackgroundImageFix" result="shape"/>
<feGaussianBlur stdDeviation="3.5" result="effect1_foregroundBlur_116_486"/>
</filter>
<radialGradient id="paint0_radial_116_486" cx="0" cy="0" r="1" gradientUnits="userSpaceOnUse" gradientTransform="translate(183 20) rotate(90) scale(71)">
<stop stop-color="#F2E807"/>
<stop offset="1" stop-color="#FCF76D" stop-opacity="0.58"/>
</radialGradient>
<clipPath id="clip0_116_486">
<rect width="1920" height="120" fill="white"/>
</clipPath>
</defs>
</svg>
