<svg width="41" height="40" viewBox="0 0 41 40" fill="none" xmlns="http://www.w3.org/2000/svg">
<path d="M14.9207 34.7464L14.9225 34.7434L22.145 23.0069L25.5045 24.8883L19.0581 37.0598L14.9207 34.7464ZM14.5695 15.112L20.9708 2.94047L25.0635 5.29821L25.0613 5.30177L17.839 17.0379L14.5695 15.112ZM26.8787 17.6739L34.3619 29.2593L30.2241 31.688H30.1943L23.5638 19.645L26.8787 17.6739ZM4.75594 22.9562L18.5055 23.3619L18.5951 27.1691L4.75594 27.7552V22.983V22.9562ZM21.4787 12.8309L35.3184 12.2448L35.3633 16.9992H35.3363H35.3361L21.4787 16.6832V12.8309ZM13.1052 22.2809L5.71216 10.6503L9.79324 8.22855L16.3748 20.3549L13.1052 22.2809Z" fill="#121212" stroke="#121212" stroke-width="0.0357346"/>
</svg>
