<svg width="237" height="48" viewBox="0 0 237 48" fill="none" xmlns="http://www.w3.org/2000/svg">
<path d="M200.801 20.3364C201.789 21.3844 202.286 22.8054 202.286 24.6057V34.0764H198.621V25.6794C198.621 24.6185 198.322 23.7827 197.723 23.1719C197.123 22.561 196.314 22.2524 195.288 22.2524C194.077 22.2717 193.114 22.6896 192.407 23.4998C191.699 24.3099 191.342 25.3515 191.342 26.6181V34.0764H187.703V13.0324H191.342V21.7959C192.369 19.8092 194.172 18.7997 196.747 18.7612C198.456 18.7612 199.813 19.282 200.801 20.3364ZM179.608 22.021C178.397 22.021 177.409 22.4389 176.657 23.2683C175.905 24.1041 175.523 25.1779 175.523 26.5024C175.523 27.8654 175.905 28.9585 176.657 29.7943C177.416 30.6237 178.397 31.0417 179.615 31.0417C181.406 31.0417 182.751 30.4437 183.649 29.2542L185.918 31.1574C185.249 32.1411 184.331 32.9255 183.261 33.427C182.158 33.9543 180.883 34.2179 179.424 34.2179C177.951 34.2179 176.638 33.8964 175.491 33.2534C174.363 32.6298 173.432 31.6846 172.82 30.5466C172.183 29.3828 171.864 28.0455 171.864 26.5345C171.864 25.0043 172.189 23.6476 172.833 22.4775C173.451 21.3266 174.388 20.3878 175.523 19.7578C176.67 19.1148 177.989 18.7933 179.487 18.7933C180.851 18.7933 182.069 19.0312 183.139 19.5134C184.21 19.9956 185.083 20.6836 185.759 21.5709L183.547 23.6991C182.521 22.5803 181.215 22.021 179.608 22.021ZM169.538 18.9026V34.0764H165.898V31.6653C165.382 32.4755 164.662 33.1377 163.814 33.5813C162.966 34.025 161.991 34.25 160.889 34.25C159.467 34.25 158.224 33.9221 157.147 33.2727C156.076 32.6233 155.235 31.7039 154.642 30.5209C154.05 29.3378 153.75 27.9812 153.75 26.4509C153.75 24.94 154.05 23.6026 154.649 22.4389C155.242 21.2751 156.083 20.375 157.154 19.732C158.224 19.0891 159.461 18.7676 160.863 18.7676C161.966 18.7676 162.947 18.9926 163.801 19.4363C164.656 19.8799 165.382 20.5357 165.898 21.3523V18.9155L169.538 18.9026ZM164.579 30.0322C165.344 29.2864 165.784 28.2962 165.898 27.0682V25.9944C165.784 24.76 165.35 23.7762 164.585 23.0304C163.821 22.2846 162.852 21.9117 161.673 21.9117C160.423 21.9117 159.404 22.3424 158.62 23.204C157.836 24.0656 157.434 25.1779 157.415 26.5345C157.434 27.8976 157.836 29.0035 158.62 29.865C159.404 30.7266 160.423 31.1574 161.673 31.1574C162.845 31.1574 163.814 30.7845 164.579 30.0322ZM150.085 20.8572C151.29 22.2396 151.889 24.1749 151.889 26.6695C151.889 27.1582 151.876 27.5311 151.863 27.7754H140.805C141.047 28.8556 141.544 29.6979 142.303 30.3151C143.055 30.9324 143.985 31.2345 145.088 31.2345C145.84 31.2345 146.592 31.0867 147.287 30.7909C147.982 30.508 148.606 30.0772 149.123 29.5307L151.079 31.601C150.321 32.4433 149.39 33.0991 148.345 33.5299C147.274 33.9864 146.082 34.2114 144.776 34.2114C143.246 34.2114 141.895 33.89 140.728 33.247C139.588 32.6298 138.644 31.6846 138.026 30.5402C137.389 29.3764 137.076 28.039 137.076 26.5281C137.076 25.0171 137.395 23.6734 138.045 22.5032C138.67 21.3523 139.607 20.4007 140.748 19.7642C141.908 19.1084 143.221 18.7869 144.693 18.7869C147.083 18.7869 148.881 19.4813 150.085 20.8572ZM148.562 25.3129C148.524 24.1942 148.16 23.3069 147.472 22.6446C146.784 21.9824 145.866 21.648 144.725 21.648C143.66 21.648 142.768 21.976 142.048 22.6253C141.328 23.2747 140.888 24.1684 140.716 25.3065H148.562V25.3129ZM133.118 19.5713C133.985 19.0505 134.998 18.7805 136.159 18.7612V22.336C134.61 22.2396 133.373 22.6061 132.449 23.429C131.525 24.252 131.059 25.3643 131.059 26.7596V34.0764H127.42V18.9026H131.059V21.8216C131.569 20.8379 132.251 20.0857 133.118 19.5713ZM124.692 33.1377C123.5 33.8771 122.245 34.2436 120.938 34.2436C119.65 34.2436 118.592 33.8578 117.777 33.0927C116.954 32.3276 116.546 31.196 116.546 29.7043V15.3535L120.16 14.9163V19.5199H124.444V22.2139H120.16V29.0549C120.16 29.7557 120.288 30.2508 120.549 30.5402C120.811 30.8359 121.199 30.9774 121.722 30.9774C122.283 30.9774 122.99 30.7716 123.851 30.3537L124.692 33.1377ZM109.803 18.9026H113.417V27.4089C113.417 32.3726 109.994 34.2179 106.521 34.2179C103.047 34.2179 99.6305 32.3726 99.6305 27.4089V18.9026H103.244V27.5375C103.244 29.4407 104.647 30.9838 106.527 30.9838C108.407 30.9838 109.809 29.4407 109.809 27.5375L109.803 18.9026ZM92.1414 15.3021C93.7029 16.1572 95.0032 17.4238 95.9083 18.9605C96.8261 20.51 97.2786 22.2331 97.2786 24.1234C97.2786 26.0137 96.8197 27.7369 95.9083 29.2992C95.0032 30.8488 93.7029 32.1283 92.1414 33.0027C90.5416 33.9092 88.776 34.3657 86.832 34.3657C84.888 34.3657 83.1225 33.9092 81.5291 33.0027C79.9675 32.1283 78.6673 30.8488 77.7622 29.2992C76.8507 27.7369 76.3918 26.0137 76.3918 24.1234C76.3918 22.2331 76.8507 20.51 77.7622 18.9605C78.6673 17.4174 79.9675 16.1572 81.5291 15.3021C83.1225 14.4148 84.8944 13.9711 86.832 13.9711C88.776 13.9647 90.5479 14.4083 92.1414 15.3021ZM83.5623 18.2661C82.5489 18.8448 81.7075 19.687 81.1275 20.7029C80.5284 21.7381 80.2288 22.8761 80.2288 24.1234C80.2288 25.3708 80.5348 26.5152 81.1403 27.5568C81.7267 28.5791 82.568 29.4278 83.575 30.0258C84.5948 30.6302 85.6975 30.9324 86.8958 30.9324C88.0494 30.9388 89.1839 30.6237 90.1719 30.0258C91.1726 29.4278 91.9948 28.5791 92.5684 27.5568C93.1612 26.5088 93.4607 25.3258 93.448 24.1234C93.448 22.8761 93.1548 21.7381 92.5684 20.7029C92.0011 19.6935 91.1726 18.8512 90.1719 18.2661C89.1776 17.6746 88.0494 17.3659 86.8958 17.3724C85.723 17.3659 84.5757 17.6746 83.5623 18.2661ZM48.9656 5.45837C54.1219 5.45837 61.9107 7.05934 65.531 10.7306C66.4488 11.6629 67.6534 13.4825 67.6534 16.1572C67.6534 20.9022 63.8738 28.1869 59.7053 32.4176C57.551 34.6036 54.1219 37.4584 49.5073 37.4584C44.9947 37.4584 41.5529 34.3593 40.5586 33.3434C36.7343 29.4728 34 23.5962 34 18.1246C34 14.6655 34.9752 11.6436 37.4546 9.12966C39.7491 6.80859 43.7072 5.45837 48.9656 5.45837ZM55.3457 24.3935C57.0857 22.6318 57.5574 20.4586 57.5574 19.2627C57.5574 18.3947 57.3343 17.1281 56.2635 16.0415C54.6255 14.3762 52.8026 13.9068 50.8267 13.9068C48.3218 13.9068 46.6391 14.7105 45.5174 15.8421C44.6378 16.7423 43.8793 18.1054 43.8793 20.0535C43.8793 21.9952 44.9055 23.8727 46.0145 25.0043C47.0471 26.0459 48.666 26.8174 50.2913 26.8174C51.923 26.8174 53.6057 26.1552 55.3457 24.3935Z" fill="#575757"/>
</svg>
