<svg width="77" height="63" viewBox="0 0 77 63" fill="none" xmlns="http://www.w3.org/2000/svg">
<path d="M12.7156 43.5046C16.7269 43.4852 19.9618 39.9731 19.9409 35.66C19.9201 31.3469 16.6514 27.8662 12.6401 27.8855C8.62881 27.9049 5.39391 31.4171 5.41476 35.7302C5.43561 40.0433 8.7043 43.524 12.7156 43.5046Z" fill="#F1E811"/>
<path d="M64.4142 36.156C62.4184 44.7394 46.2985 47.6717 38.0604 47.9608C27.8066 48.3234 10.8353 45.2593 8.72348 36.4252C6.49791 27.1141 21.0115 12.3742 36.4502 12.2943C51.926 12.2195 66.5711 26.8715 64.4089 36.156L64.4142 36.156Z" fill="#F1E811"/>
<path d="M35.9537 46.5305C38.4393 44.6631 34.8 35.6232 27.8251 26.3393C20.8502 17.0553 13.1811 11.043 10.6955 12.9104C8.20995 14.7777 11.8493 23.8176 18.8241 33.1016C25.799 42.3855 33.4682 48.3978 35.9537 46.5305Z" fill="#F1E811"/>
<path d="M27.0047 41.3914C30.0126 39.1316 28.7486 32.3714 24.1814 26.2923C19.6142 20.2131 13.4734 17.1169 10.4654 19.3767C7.45742 21.6365 8.72142 28.3967 13.2886 34.4758C17.8558 40.555 23.9967 43.6512 27.0047 41.3914Z" fill="#F1E811"/>
<path d="M39.1159 47.924C43.7191 47.9018 47.3999 37.3659 47.3372 24.3915C47.2745 11.417 43.492 0.917202 38.8889 0.939451C34.2857 0.9617 30.6049 11.4976 30.6676 24.472C30.7303 37.4465 34.5128 47.9463 39.1159 47.924Z" fill="#F1E811"/>
<path d="M57.1602 34.0998C67.9095 26.8338 74.4365 17.7083 71.7388 13.7174C69.0412 9.72653 58.1403 12.3815 47.3911 19.6475C36.6419 26.9135 30.1149 36.039 32.8125 40.0299C35.5102 44.0208 46.411 41.3658 57.1602 34.0998Z" fill="#F1E811"/>
<path d="M32.9767 31.2997C32.2179 31.2768 31.6589 31.9745 31.4658 32.644C31.2048 33.5366 31.6813 34.415 32.4369 34.8782C33.6129 35.5994 35.2709 35.0555 35.8964 33.8481C36.2801 33.1035 36.2761 32.2652 35.8852 31.5244C35.5692 30.9158 34.9783 30.4942 34.3406 30.285C33.7029 30.0759 32.9606 30.1644 32.352 30.475C31.574 30.8767 31.1429 31.6958 31.0727 32.5398C30.9875 33.5747 31.7028 34.4838 32.654 34.7923C33.6052 35.1007 34.6904 34.5914 35.2222 33.7665C35.5698 33.229 35.5448 32.4439 35.2133 31.9096L35.1972 31.8832C34.7855 31.222 33.9294 30.8229 33.1613 31.0653C32.6686 31.2216 32.2721 31.5259 32.009 31.9728L32.2937 31.6001C32.2727 31.632 32.2462 31.6534 32.2145 31.6747L32.5845 31.3865C32.5528 31.4078 32.521 31.4292 32.484 31.44L32.9234 31.2522C32.8863 31.2683 32.8492 31.2738 32.8068 31.2793L33.2946 31.2132C33.2575 31.2134 33.215 31.2136 33.1779 31.2138L33.6663 31.2751C33.6291 31.27 33.5919 31.2596 33.5547 31.2438L33.9907 31.4274L33.9428 31.3958L34.3155 31.6805L34.2729 31.6383L34.5612 32.0083C34.5291 31.9713 34.5024 31.9343 34.4863 31.8866L34.6741 32.3207C34.658 32.2784 34.6418 32.2307 34.6416 32.183L34.7076 32.6654C34.7074 32.6177 34.7071 32.5699 34.7069 32.5222L34.6456 33.0053C34.6506 32.9575 34.6663 32.9097 34.682 32.8619L34.5037 33.2978C34.5352 33.2233 34.5721 33.1701 34.6142 33.1062L34.3348 33.4737C34.3665 33.4364 34.4034 33.3991 34.4404 33.3724L34.0757 33.6553C34.1127 33.6286 34.1498 33.6072 34.1868 33.5858L33.7579 33.7683C33.8215 33.7414 33.8744 33.7253 33.9433 33.709L33.4662 33.775C33.5563 33.7639 33.6359 33.7636 33.7261 33.7737L33.2483 33.7124C33.3386 33.7278 33.4183 33.7487 33.5033 33.7854L33.0727 33.6071C33.1312 33.6387 33.1897 33.6649 33.243 33.7018L32.8808 33.4223C32.9501 33.4751 33.0087 33.5331 33.0674 33.6018L32.7898 33.2424C32.8165 33.2794 32.8379 33.3111 32.854 33.3535L32.6715 32.9299C32.6984 32.9935 32.7146 33.0465 32.7308 33.1153L32.6649 32.6488C32.6705 32.7177 32.6708 32.7814 32.6659 32.8504L32.7273 32.3832C32.7222 32.4257 32.7065 32.4682 32.6907 32.5107L32.8638 32.0907C32.8481 32.1333 32.8271 32.1758 32.806 32.213C33.017 31.9574 33.0644 31.8935 32.9536 32.0213C32.7689 32.2079 33.3769 31.7699 33.0222 31.9414L33.4352 31.7643C33.3717 31.7912 33.3081 31.8074 33.2445 31.8236L33.7005 31.7578C33.6315 31.7687 33.5732 31.769 33.5042 31.7587L33.9607 31.8202C33.8917 31.8099 33.8332 31.7889 33.7695 31.7627L34.1788 31.9305C33.9979 31.8306 34.3758 32.0834 34.3759 32.094C34.3758 32.0781 34.2959 32.0042 34.2746 31.9884C34.1679 31.8828 34.0136 31.7775 33.8912 31.6985C33.7528 31.6089 33.8324 31.6245 34.067 31.8515C33.8644 31.6562 34.2326 32.0841 34.1364 31.9519C33.8533 31.5501 33.4754 31.3079 32.982 31.2943L32.9767 31.2997Z" fill="#3E3D4D"/>
<path d="M18.9791 17.7745C19.6166 15.75 21.9853 15.1496 23.5203 16.6171C24.0747 17.145 24.9195 16.3026 24.3598 15.7695C22.1638 13.6791 18.7302 14.5817 17.8263 17.467C17.5964 18.2003 18.7492 18.5077 18.9791 17.7798L18.9791 17.7745Z" fill="#3E3D4D"/>
<path d="M31.3594 20.5001C32.8531 18.8853 35.2972 19.6322 35.7055 21.7737C35.8524 22.5263 36.9968 22.2025 36.8552 21.4498C36.2782 18.4337 32.586 17.4223 30.5118 19.6606C29.9893 20.2255 30.8369 21.065 31.3594 20.5001Z" fill="#3E3D4D"/>
<path d="M21.9247 42.1445L35.9222 61.1184" stroke="#FFB487" stroke-width="2.37076" stroke-miterlimit="10" stroke-linecap="round"/>
<path d="M20.3229 35.6584C22.6113 35.6473 24.4575 33.7832 24.4464 31.4948C24.4353 29.2064 22.5713 27.3603 20.2829 27.3713C17.9945 27.3824 16.1483 29.2465 16.1594 31.5349C16.1704 33.8233 18.0345 35.6694 20.3229 35.6584Z" fill="#3E3D4D"/>
<path d="M30.6884 37.5341C30.694 38.6854 29.7648 39.6237 28.6135 39.6292C27.4622 39.6348 26.5293 38.7055 26.5237 37.5543C26.522 37.1988 26.6052 36.8641 26.7577 36.5716C27.1047 35.912 27.7922 35.4631 28.5933 35.4592C29.5271 35.4547 30.3206 36.0663 30.5899 36.9139C30.6545 37.1099 30.6874 37.3219 30.6884 37.5341Z" fill="#3E3D4D" stroke="#3E3D4D" stroke-width="0.948303" stroke-miterlimit="10" stroke-linecap="round"/>
<path d="M30.5898 36.9084C30.1672 37.2925 29.5371 37.5343 28.8314 37.5377C27.9295 37.542 27.1424 37.1426 26.7576 36.5662C27.1046 35.9066 27.7921 35.4576 28.5932 35.4537C29.527 35.4492 30.3205 36.0608 30.5898 36.9084Z" fill="white"/>
<path opacity="0.45" d="M14.3359 43.9479C21.2158 43.9146 26.7661 38.3271 26.733 31.4677C26.6998 24.6084 21.0957 19.0747 14.2159 19.108C7.33601 19.1413 1.78567 24.7288 1.81882 31.5881C1.85197 38.4475 7.45607 43.9811 14.3359 43.9479Z" fill="#B5FFDD"/>
<path d="M13.9118 44.019C20.7917 43.9857 26.3419 38.3815 26.3087 31.5017C26.2754 24.6218 20.6713 19.0716 13.7914 19.1048C6.91157 19.1381 1.36131 24.7423 1.39456 31.6221C1.42781 38.502 7.03199 44.0522 13.9118 44.019Z" stroke="#FFB487" stroke-width="1.42245" stroke-miterlimit="10"/>
<path d="M55.258 42.9808C52.8172 50.6113 46.3766 57.2637 38.1422 58.3222C35.258 58.7341 32.3283 58.5042 29.5605 57.7695C26.9257 57.0872 25.337 54.3996 26.014 51.7648C26.6963 49.13 29.3838 47.5413 32.0186 48.2183C34.4691 49.1826 37.0982 49.7801 39.6841 49.1256C43.9986 48.2399 47.4715 44.4987 49.3627 40.6059C51.1655 37.0955 56.3911 39.2243 55.2527 42.9808L55.258 42.9808Z" fill="#F1E811"/>
</svg>
