<svg width="237" height="48" viewBox="0 0 237 48" fill="none" xmlns="http://www.w3.org/2000/svg">
<g clip-path="url(#clip0_116_563)">
<path d="M173.031 22.9363V34.9883H176.883V26.9537H190.972V34.9883H194.824V22.9363H173.031ZM176.443 19.0291H191.302C193.393 18.6438 194.879 16.7727 195.319 15.0117H172.426C172.866 16.7727 174.407 18.5888 176.443 19.0291ZM161.309 34.9883C163.235 34.1629 164.281 32.732 164.721 31.0811H147.386V15.0668H143.479V34.9883H161.309ZM114.587 18.974H128.345C130.436 18.3687 132.142 16.7727 132.583 15.0668H110.79V26.8436H128.62V30.971H114.642C112.441 31.5764 110.57 33.0622 109.634 34.9883H132.473V22.9363H114.642L114.587 18.974ZM80.6875 19.0291H95.5462C97.6374 18.6438 99.1783 16.7727 99.5635 15.0117H76.6151C77.0554 16.7727 78.5963 18.5888 80.6875 19.0291ZM80.6875 26.8986H95.5462C97.6374 26.5134 99.1783 24.6423 99.5635 22.8813H76.6151C77.0554 24.6423 78.5963 26.4584 80.6875 26.8986ZM80.6875 34.9883H95.5462C97.6374 34.6031 99.1783 32.732 99.5635 30.971H76.6151C77.0554 32.732 78.5963 34.6031 80.6875 34.9883Z" fill="#5E5E5E"/>
<path d="M42 15.0668C42.4403 16.8278 43.9812 18.5888 46.0173 19.0291H52.291L52.6212 19.1391V34.9333H56.5285V19.1391L56.8586 19.0291H63.1323C65.2235 18.4787 66.7094 16.8278 67.1496 15.0668V15.0117L42 15.0668Z" fill="#5E5E5E"/>
</g>
<defs>
<clipPath id="clip0_116_563">
<rect width="153" height="48" fill="white" transform="translate(42)"/>
</clipPath>
</defs>
</svg>
