<svg width="101" height="68" viewBox="0 0 101 68" fill="none" xmlns="http://www.w3.org/2000/svg">
<path opacity="0.47" d="M79.1947 35.7792C77.8657 50.3389 65.5529 64.646 49.3299 64.5087C33.7329 64.377 22.0297 50.9538 20.1625 37.3768C17.7735 20.0007 31.311 1.03251 49.3299 0.889772C66.86 0.74703 80.7764 18.48 79.1947 35.7792Z" fill="url(#paint0_linear_116_270)"/>
<path opacity="0.47" d="M58.1253 38.3809C59.6272 40.624 68.0958 53.2471 63.5792 59.5586C55.73 70.5213 9.74165 60.9551 5.32918 39.9533C3.98078 33.5263 6.51316 25.9723 11.4847 21.9863C22.8091 12.9094 47.1517 22.0248 58.1198 38.3809H58.1253Z" fill="url(#paint1_linear_116_270)"/>
<path opacity="0.47" d="M56.7508 61.0861C54.0813 60.7352 39.04 58.7394 37.3187 51.1839C34.3258 38.0576 71.9293 9.90796 90.5446 20.4737C96.2399 23.7086 100.203 30.5953 99.8906 36.9555C99.1726 51.4416 76.2432 63.6631 56.7563 61.0806L56.7508 61.0861Z" fill="url(#paint2_linear_116_270)"/>
<path d="M24.1439 50.8386C19.2627 52.9934 13.7385 52.7248 12.6886 46.4468C12.5512 45.9205 12.4247 45.7395 12.3643 45.7121C12.0455 45.5367 11.7541 45.4928 11.1825 45.4928C9.21463 45.5531 6.81803 46.222 4.70177 45.3886C-1.33369 43.0255 0.722111 34.823 3.40454 30.678C6.29034 26.4726 12.4907 30.3764 9.92371 34.7847C8.78587 36.1938 8.0658 37.9867 7.84592 39.6371C7.78546 39.5109 7.52711 39.2149 7.35122 39.1381C7.28526 39.0942 7.19181 39.0888 7.18082 39.0723C7.15334 39.0613 7.09286 39.0723 7.13684 39.0778C8.43407 39.341 10.0007 38.9791 11.5727 39.182C13.656 39.3245 16.0416 40.3553 17.2949 42.3127C18.2568 43.6834 18.4162 45.5202 18.6141 46.5894C18.6141 46.6332 18.6141 46.5784 18.5866 46.5949C18.5811 46.5675 18.5372 46.5565 18.5207 46.54C18.4712 46.5071 18.4602 46.5291 18.5097 46.5675C18.6141 46.6497 18.9164 46.7374 19.3232 46.7539C20.1587 46.7922 21.3185 46.5455 22.4289 46.1782C25.4796 45.279 27.0517 49.5611 24.1439 50.8441V50.8386Z" fill="#F1E811"/>
<path d="M78.8089 44.1741C80.2268 44.5355 81.6613 44.8859 82.8429 44.4807C82.9253 44.4314 82.9583 44.3931 82.9198 44.3986C82.8759 44.4095 82.7879 44.4917 82.7494 44.5245C82.8044 43.7361 83.0737 41.8746 83.9805 40.6099C84.6345 39.6298 85.6293 38.8633 86.6845 38.3596C88.7564 37.292 91.955 37.5603 93.6368 37.511C94.0874 37.4946 94.3842 37.3796 94.1863 37.407C93.8896 37.4617 93.5873 37.8067 93.4884 38.0476C93.3949 38.2666 93.4334 38.1352 93.3455 37.8231C93.0707 36.7226 92.4771 35.3429 91.5703 34.3848C88.3662 30.4263 93.906 25.6357 97.3904 29.3532C100.133 32.9065 102.557 39.8981 97.907 43.1284C95.0107 45.0556 91.9935 43.5938 89.1576 43.977C88.9762 44.0427 88.8773 44.0865 88.8663 44.0646C88.8389 44.0482 88.7289 44.1303 88.597 44.6942C88.5586 44.8585 88.4542 45.2746 88.4157 45.4334C88.1079 46.7583 87.355 48.1326 86.1789 48.8936C83.4529 50.7222 79.8806 49.8517 77.2371 48.8662C74.2693 47.6781 75.7312 43.331 78.8144 44.1577L78.8089 44.1741Z" fill="#F1E811"/>
<path d="M80.6777 51.7395C78.4503 61.0971 60.8395 64.2126 51.8421 64.4869C40.6447 64.827 22.1342 61.3988 19.8794 51.7395C17.4983 41.5591 33.4248 25.5536 50.2785 25.5481C67.1706 25.5481 83.0861 41.6195 80.6777 51.7395Z" fill="#F1E811"/>
<path d="M48.6483 61.7732C52.6835 58.772 49.0988 47.121 40.6415 35.75C32.1843 24.3789 22.0572 17.5937 18.022 20.5949C13.9868 23.5961 17.5715 35.2471 26.0287 46.6182C34.486 57.9893 44.6131 64.7744 48.6483 61.7732Z" fill="#F1E811"/>
<path d="M50.2813 61.4274C55.2862 61.4274 59.3435 49.9179 59.3435 35.7202C59.3435 21.5225 55.2862 10.0129 50.2813 10.0129C45.2763 10.0129 41.219 21.5225 41.219 35.7202C41.219 49.9179 45.2763 61.4274 50.2813 61.4274Z" fill="#F1E811"/>
<path d="M74.5832 46.6331C83.0404 35.262 86.6252 23.611 82.59 20.6098C78.5547 17.6086 68.4276 24.3938 59.9704 35.7649C51.5132 47.1359 47.9284 58.7869 51.9636 61.7881C55.9988 64.7893 66.126 58.0042 74.5832 46.6331Z" fill="#F1E811"/>
<path d="M45.5343 50.3306C45.869 50.6775 47.5647 52.3452 50.2812 52.4236C52.9029 52.5019 54.6488 51.0413 55.0281 50.7111" stroke="#3E3D4D" stroke-miterlimit="10" stroke-linecap="round"/>
<path d="M39.4881 38.9423C40.1605 36.9048 42.6296 36.3127 44.2224 37.7955C44.7956 38.3289 45.6774 37.4862 45.0987 36.9474C42.828 34.8299 39.2511 35.7207 38.2922 38.6223C38.0497 39.3583 39.2456 39.673 39.4881 38.9423Z" fill="#3E3D4D"/>
<path d="M41.8092 46.449C42.4698 44.3412 44.8956 43.7287 46.4605 45.2627C47.0236 45.8144 47.8899 44.9426 47.3214 44.3853C45.0905 42.1948 41.5764 43.1163 40.6342 46.1179C40.396 46.8794 41.571 47.2049 41.8092 46.449Z" fill="#3E3D4D"/>
<path d="M53.6442 44.9224C55.1716 43.3203 57.7625 43.7111 58.5658 45.8379C58.8486 46.5859 60.0818 46.2622 59.7933 45.503C58.6732 42.5444 54.9793 41.6903 52.7391 44.0348C52.1791 44.621 53.0785 45.5141 53.6386 44.9224H53.6442Z" fill="#3E3D4D"/>
<path d="M56.8098 37.4744C58.4635 35.6915 61.1576 36.5305 61.5957 38.9096C61.7436 39.6934 62.9263 39.3622 62.784 38.5784C62.1761 35.2885 58.1897 34.168 55.9392 36.5967C55.3971 37.1818 56.2677 38.0595 56.8098 37.4744Z" fill="#3E3D4D"/>
<defs>
<linearGradient id="paint0_linear_116_270" x1="49.599" y1="0.884282" x2="49.599" y2="64.5088" gradientUnits="userSpaceOnUse">
<stop stop-color="white"/>
<stop offset="1" stop-color="#FFA23F"/>
</linearGradient>
<linearGradient id="paint1_linear_116_270" x1="9.36351" y1="24.0302" x2="61.3517" y2="62.5801" gradientUnits="userSpaceOnUse">
<stop stop-color="white"/>
<stop offset="1" stop-color="#FFA23F"/>
</linearGradient>
<linearGradient id="paint2_linear_116_270" x1="99.778" y1="34.0155" x2="36.5142" y2="47.3323" gradientUnits="userSpaceOnUse">
<stop stop-color="white"/>
<stop offset="1" stop-color="#FFA23F"/>
</linearGradient>
</defs>
</svg>
