<svg width="237" height="48" viewBox="0 0 237 48" fill="none" xmlns="http://www.w3.org/2000/svg">
<g clip-path="url(#clip0_116_557)">
<path d="M86.825 30.0563C86.35 30.175 85.7563 30.2938 85.1625 30.2938C83.975 30.2938 83.5 29.5813 83.5 28.3938V23.05H86.825C87.6562 23.05 88.4875 22.4563 88.4875 21.5063C88.4875 20.5563 87.775 19.9625 86.825 19.9625H83.5V18.1813C83.5 17.1125 82.6688 16.4 81.7188 16.4C80.7688 16.4 79.9375 17.2313 79.9375 18.1813V28.5125C79.9375 31.4813 81.3625 33.6188 84.6875 33.6188C85.6375 33.6188 86.9438 33.5 87.8938 33.025C88.725 32.6688 88.9625 32.075 88.9625 31.4813C88.9625 30.65 88.1312 29.8188 86.825 30.0563ZM98.7 19.4875C98.225 19.3688 97.275 19.25 96.4438 19.25C93.475 19.25 91.8125 21.0313 91.8125 23.7625V31.8375C91.8125 32.7875 92.6438 33.6188 93.5938 33.6188C94.5437 33.6188 95.375 32.7875 95.375 31.8375V24.475C95.375 23.2875 95.85 22.8125 96.6812 22.8125C97.5125 22.8125 97.9875 23.05 98.7 23.05C99.7687 23.05 100.363 22.1 100.363 21.3875C100.244 20.4375 99.7687 19.8438 98.7 19.4875ZM108.556 19.25C105.231 19.25 102.856 21.3875 102.5 24.8313C102.5 25.6625 102.381 27.0875 102.5 28.1563C102.737 31.4813 105.113 33.7375 108.675 33.7375C110.338 33.7375 111.881 33.3813 112.831 32.7875C113.544 32.3125 113.663 31.8375 113.663 31.3626C113.663 30.4125 112.831 29.4625 111.406 29.9375C110.575 30.2938 109.625 30.5313 108.675 30.5313C107.013 30.5313 105.706 29.7 105.706 28.0375V27.6813H112.475C113.663 27.6813 114.256 26.9688 114.256 25.9V25.3063C114.375 21.625 112 19.25 108.556 19.25ZM110.812 25.3063H105.825C105.825 23.525 106.656 22.3375 108.556 22.3375C110.219 22.3375 111.169 23.4063 111.05 24.95C111.05 25.1875 111.05 25.3063 110.812 25.3063ZM122.806 19.25C119.481 19.25 117.106 21.3875 116.75 24.8313C116.75 25.6625 116.631 27.0875 116.75 28.1563C116.987 31.4813 119.362 33.7375 122.925 33.7375C124.587 33.7375 126.131 33.3813 127.081 32.7875C127.794 32.3125 127.913 31.8375 127.913 31.3626C127.913 30.4125 127.081 29.4625 125.656 29.9375C124.825 30.2938 123.875 30.5313 122.925 30.5313C121.262 30.5313 119.956 29.7 119.956 28.0375V27.6813H126.725C127.913 27.6813 128.506 26.9688 128.506 25.9V25.3063C128.625 21.625 126.25 19.25 122.806 19.25ZM125.062 25.3063H120.075C120.075 23.525 120.906 22.3375 122.806 22.3375C124.469 22.3375 125.419 23.4063 125.3 24.95C125.3 25.1875 125.3 25.3063 125.062 25.3063ZM182.775 25.1875L180.875 24.7125C179.688 24.475 179.331 24.1188 179.331 23.525C179.331 22.9313 179.925 22.4563 181.231 22.4563C181.944 22.4563 182.775 22.6938 183.487 23.05C184.319 23.525 185.269 23.4063 185.744 22.8125C186.338 22.2188 186.338 21.15 185.625 20.4375C184.675 19.725 183.013 19.25 181.35 19.25C178.263 19.25 176.006 20.7938 176.006 23.6438C176.006 25.9 177.669 27.0875 179.806 27.6813C180.875 27.9188 180.756 27.9188 181.706 28.1563C182.775 28.3938 183.25 28.8688 183.25 29.3438C183.25 30.0563 182.656 30.5313 181.231 30.5313C180.044 30.5313 178.975 30.175 178.144 29.7C177.312 29.1063 176.363 29.3438 175.888 30.0563C175.413 30.7688 175.531 31.7188 176.244 32.1938C177.194 33.025 178.738 33.7375 181.231 33.7375C184.319 33.7375 186.694 32.075 186.694 29.225C186.694 27.0875 185.387 25.7813 182.775 25.1875ZM199.281 27.6813C200.469 27.6813 201.062 26.9688 201.062 25.9V25.3063C201.062 21.625 198.688 19.25 195.244 19.25C191.919 19.25 189.544 21.3875 189.188 24.8313C189.188 25.6625 189.069 27.0875 189.188 28.1563C189.425 31.4813 191.8 33.7375 195.362 33.7375C197.025 33.7375 198.569 33.3813 199.519 32.7875C200.231 32.3125 200.35 31.8375 200.35 31.3626C200.35 30.4125 199.519 29.4625 198.094 29.9375C197.262 30.2938 196.312 30.5313 195.362 30.5313C193.7 30.5313 192.394 29.7 192.394 28.0375V27.6813H199.281ZM195.244 22.3375C196.906 22.3375 197.856 23.4063 197.737 24.95C197.737 25.1875 197.619 25.3063 197.5 25.3063H192.513C192.513 23.525 193.463 22.3375 195.244 22.3375ZM151.781 19.25C148.219 19.25 145.606 21.5063 145.25 24.5938C145.131 25.6625 145.131 27.3251 145.25 28.3938C145.488 31.4813 148.219 33.7375 151.781 33.7375C155.344 33.7375 157.956 31.4813 158.194 28.3938C158.312 27.3251 158.312 25.7813 158.194 24.7125C157.956 21.5063 155.344 19.25 151.781 19.25ZM154.631 27.8C154.513 29.3438 153.444 30.2938 151.781 30.2938C150.119 30.2938 149.05 29.225 148.931 27.8C148.931 27.0876 148.931 25.9 148.931 25.1875C149.05 23.6438 150.119 22.6938 151.781 22.6938C153.444 22.6938 154.513 23.7625 154.631 25.1875C154.75 25.9 154.75 27.0876 154.631 27.8ZM137.65 19.25C136.344 19.25 134.919 19.725 134.444 20.3188V16.5188C134.444 15.45 133.731 14.7375 132.781 14.7375C131.831 14.7375 131.119 15.5688 131.119 16.5188V31.8375C131.119 32.7875 131.95 33.6188 132.9 33.6188C133.85 33.6188 134.562 32.7875 134.562 31.8375V23.8813C135.156 23.2875 136.106 22.8125 137.294 22.8125C138.719 22.8125 139.55 23.6438 139.55 25.3063V31.8375C139.55 32.9063 140.262 33.7375 141.212 33.7375C142.281 33.7375 142.994 32.9063 142.994 31.8375V25.0688C142.875 21.2688 140.975 19.25 137.65 19.25ZM170.9 19.3688C169.95 19.3688 169.119 20.2 169.119 21.15V29.5813C168.525 29.9375 167.694 30.2938 166.625 30.2938C165.2 30.2938 164.131 29.4626 164.131 27.8V21.15C164.131 20.0813 163.3 19.25 162.35 19.25C161.281 19.25 160.688 20.0813 160.688 21.15V27.9188C160.688 31.6 162.825 33.6188 166.506 33.6188C169.238 33.6188 171.137 32.6688 171.969 32.075C172.444 31.8375 172.562 31.4813 172.562 30.8875V21.15C172.562 20.2 171.85 19.3688 170.9 19.3688Z" fill="#575757"/>
<path d="M66.875 12.0063C65.5688 11.2938 63.55 12.4813 62.3625 14.6188L60.1062 18.4188C59.275 19.9626 59.3938 21.8626 60.4625 23.4063L60.5813 23.5251C61.65 24.9501 62.9563 26.3751 63.4312 26.8501C63.6688 27.0876 63.9062 27.4438 64.025 27.9188C64.3813 29.2251 63.6688 30.6501 62.2437 31.0063C60.9375 31.3626 59.5125 30.6501 59.1562 29.2251C59.0375 28.8689 59.0375 28.5126 59.0375 28.2751C59.1562 27.6814 58.9188 26.8501 58.0875 25.9001C57.2563 25.0689 55.7125 26.7314 55.1187 28.3939V28.5126C54.6438 30.1751 54.2875 31.7189 54.4062 31.8376C54.4062 31.9564 54.525 31.9564 54.525 32.0751C55.2375 33.5001 54.7625 35.1626 53.3375 35.8751C51.9125 36.5876 50.25 36.1126 49.5375 34.6876C48.825 33.2626 49.3 31.6001 50.725 30.8876C50.8438 30.8876 50.8438 30.7689 50.9625 30.7689C51.0813 30.7689 51.3187 30.0563 51.675 29.1063C51.9125 28.2751 52.0312 27.9188 52.15 27.5626C52.2688 27.0876 52.5063 25.9001 52.3875 25.4251C52.2688 24.8314 51.675 24.8314 51.0813 25.1876C50.725 25.4251 50.0125 26.0189 49.775 26.2563C49.1813 26.7313 48.7063 27.4438 48.4688 28.0376C48.35 28.2751 48.1125 28.6314 47.875 28.8689C46.8062 29.7001 45.2625 29.5814 44.3125 28.5126C43.4812 27.4438 43.6 25.9001 44.6687 24.9501C45.025 24.7126 45.3812 24.4751 45.7375 24.4751C46.3313 24.3563 48.4688 23.0501 49.775 22.1001C50.0125 21.9813 50.3687 21.6251 50.4875 21.5063C50.8438 21.0313 50.4875 20.6751 50.1312 20.6751C49.0625 20.7938 47.875 20.9126 47.6375 21.2689C47.5188 21.3876 47.4 21.6251 47.1625 21.7439C46.2125 22.4564 44.7875 22.2188 44.075 21.2689C43.3625 20.3188 43.6 18.8939 44.55 18.1813C44.9062 17.8251 45.5 17.7063 45.8562 17.7063C46.6875 17.7063 48.825 18.1813 50.4875 17.8251L50.9625 17.7063C52.7437 17.3501 54.8813 15.8063 55.7125 14.2626C55.7125 14.2626 56.5438 12.8376 57.4937 11.0563C58.5625 9.2751 58.4438 7.25635 57.375 6.6626L55.3562 5.4751C54.2875 4.88135 52.7437 4.88135 51.675 5.4751L37.9 13.3126C36.8313 13.9063 36 15.3313 36 16.5188V31.7189C36 32.9064 36.8313 34.3314 37.9 34.9251L51.675 42.7626C52.7437 43.3563 54.4062 43.3563 55.3562 42.7626L69.1312 34.9251C70.2 34.3314 71.0312 32.9064 71.0312 31.7189V16.5188C71.0312 15.3313 70.2 13.9063 69.1312 13.3126C69.1312 13.3126 68.1813 12.7188 66.875 12.0063Z" fill="#575757"/>
</g>
<defs>
<clipPath id="clip0_116_557">
<rect width="165" height="48" fill="white" transform="translate(36)"/>
</clipPath>
</defs>
</svg>
